<svg xmlns="http://www.w3.org/2000/svg" width="180" height="180" viewBox="0 0 180 180"><defs><path id="ring" d="M 24,90 a 66,66 0 1,1 132,0"/></defs><circle cx="90" cy="90" r="87" fill="#fff" stroke="#d4ae65" stroke-width="4"/><circle cx="90" cy="90" r="61" fill="#e9f0f0" stroke="#163b60" stroke-width="2"/><text fill="#123351" font-family="Arial" font-size="11" font-weight="bold" letter-spacing="1"><textPath href="#ring" startOffset="50%" text-anchor="middle">MUNICIPALITY OF PINAMUNGAJAN</textPath></text><circle cx="90" cy="67" r="15" fill="#e6bc67"/><path d="M37 100 67 69 84 90 105 74 144 107" fill="#7b9d80"/><path d="M48 105h84v7H48zm10-28 32-17 32 17zm5 6h9v21h-9zm23 0h9v21h-9zm23 0h9v21h-9z" fill="#fff" stroke="#244f72" stroke-width="2"/><path d="M39 119q17-11 34 0t34 0 34 0M48 132q14-9 28 0t28 0 28 0" fill="none" stroke="#407f99" stroke-width="5"/><text x="90" y="164" text-anchor="middle" font-family="Arial" font-weight="bold" font-size="10" fill="#173b5d" letter-spacing="2">CEBU · PHILIPPINES</text></svg>
